# Blender 3.3.1
# www.blender.org
o Sphere
v 0.000000 0.309017 -0.951057
v 0.000000 0.000000 -1.000000
v 0.000000 -0.309017 -0.951057
v 0.000000 -0.587785 -0.809017
v 0.000000 -0.809017 -0.587785
v 0.000000 -0.951057 -0.309017
v 0.125689 0.951057 -0.282301
v 0.239074 0.809017 -0.536969
v 0.329057 0.587785 -0.739074
v 0.386830 0.309017 -0.868833
v 0.406737 0.000000 -0.913545
v 0.386830 -0.309017 -0.868833
v 0.329057 -0.587785 -0.739074
v 0.239074 -0.809017 -0.536969
v 0.125689 -0.951057 -0.282301
v 0.229644 0.951057 -0.206773
v 0.436810 0.809017 -0.393305
v 0.601217 0.587785 -0.541338
v 0.706773 0.309017 -0.636381
v 0.743145 0.000000 -0.669131
v 0.706773 -0.309017 -0.636381
v 0.601217 -0.587785 -0.541338
v 0.436810 -0.809017 -0.393305
v 0.229644 -0.951057 -0.206773
v 0.293893 0.951057 -0.095491
v 0.559017 0.809017 -0.181636
v 0.769421 0.587785 -0.250000
v 0.904508 0.309017 -0.293893
v 0.951056 0.000000 -0.309017
v 0.904508 -0.309017 -0.293893
v 0.769421 -0.587785 -0.250000
v 0.559017 -0.809017 -0.181636
v 0.293893 -0.951057 -0.095491
v 0.307324 0.951057 0.032301
v 0.584565 0.809017 0.061440
v 0.804585 0.587785 0.084565
v 0.945846 0.309017 0.099413
v 0.994522 0.000000 0.104529
v 0.945846 -0.309017 0.099413
v 0.804585 -0.587785 0.084565
v 0.584565 -0.809017 0.061440
v 0.307324 -0.951057 0.032301
v 0.267617 0.951057 0.154509
v 0.509037 0.809017 0.293893
v 0.700629 0.587785 0.404508
v 0.823639 0.309017 0.475528
v 0.866025 0.000000 0.500000
v 0.823639 -0.309017 0.475528
v 0.700629 -0.587785 0.404508
v 0.509037 -0.809017 0.293893
v 0.267617 -0.951057 0.154509
v 0.181636 0.951057 0.250000
v 0.345491 0.809017 0.475528
v 0.475528 0.587785 0.654508
v 0.559017 0.309017 0.769421
v 0.587785 0.000000 0.809017
v 0.559017 -0.309017 0.769421
v 0.475528 -0.587785 0.654508
v 0.345491 -0.809017 0.475528
v 0.181636 -0.951057 0.250000
v 0.064248 0.951057 0.302264
v 0.122207 0.809017 0.574941
v 0.168204 0.587785 0.791338
v 0.197736 0.309017 0.930274
v 0.207912 0.000000 0.978148
v 0.197736 -0.309017 0.930274
v 0.168204 -0.587785 0.791338
v 0.122207 -0.809017 0.574941
v 0.064248 -0.951057 0.302264
v -0.064248 0.951057 0.302264
v -0.122207 0.809017 0.574941
v -0.168204 0.587785 0.791338
v -0.197736 0.309017 0.930273
v -0.207912 0.000000 0.978147
v -0.197736 -0.309017 0.930273
v -0.168204 -0.587785 0.791338
v -0.122207 -0.809017 0.574941
v -0.064248 -0.951057 0.302264
v 0.000000 -1.000000 0.000000
v 0.000000 1.000000 0.000000
v -0.181636 0.951057 0.250000
v -0.345491 0.809017 0.475528
v -0.475528 0.587785 0.654508
v -0.559017 0.309017 0.769421
v -0.587785 0.000000 0.809017
v -0.559017 -0.309017 0.769421
v -0.475528 -0.587785 0.654508
v -0.345491 -0.809017 0.475528
v -0.181636 -0.951057 0.250000
v -0.267617 0.951057 0.154508
v -0.509037 0.809017 0.293893
v -0.700629 0.587785 0.404508
v -0.823639 0.309017 0.475528
v -0.866025 0.000000 0.500000
v -0.823639 -0.309017 0.475528
v -0.700629 -0.587785 0.404508
v -0.509037 -0.809017 0.293893
v -0.267617 -0.951057 0.154508
v -0.307324 0.951057 0.032301
v -0.584565 0.809017 0.061440
v -0.804585 0.587785 0.084565
v -0.945846 0.309017 0.099412
v -0.994522 0.000000 0.104528
v -0.945846 -0.309017 0.099412
v -0.804585 -0.587785 0.084565
v -0.584565 -0.809017 0.061440
v -0.307324 -0.951057 0.032301
v -0.293893 0.951057 -0.095492
v -0.559017 0.809017 -0.181636
v -0.769421 0.587785 -0.250000
v -0.904508 0.309017 -0.293893
v -0.951056 0.000000 -0.309017
v -0.904508 -0.309017 -0.293893
v -0.769421 -0.587785 -0.250000
v -0.559017 -0.809017 -0.181636
v -0.293893 -0.951057 -0.095492
v -0.229644 0.951057 -0.206773
v -0.436809 0.809017 -0.393305
v -0.601216 0.587785 -0.541338
v -0.706772 0.309017 -0.636381
v -0.743145 0.000000 -0.669131
v -0.706772 -0.309017 -0.636381
v -0.601216 -0.587785 -0.541338
v -0.436809 -0.809017 -0.393305
v -0.229644 -0.951057 -0.206773
v -0.125688 0.951057 -0.282301
v -0.239074 0.809017 -0.536968
v -0.329057 0.587785 -0.739074
v -0.386829 0.309017 -0.868833
v -0.406736 0.000000 -0.913545
v -0.386829 -0.309017 -0.868833
v -0.329057 -0.587785 -0.739074
v -0.239074 -0.809017 -0.536968
v -0.125688 -0.951057 -0.282301
v 0.000000 0.951057 -0.309017
v 0.000000 0.809017 -0.587785
v 0.000000 0.587785 -0.809017
vn 0.1486 0.6993 -0.6993
vn 0.0332 -0.9871 -0.1563
vn 0.1861 -0.4461 -0.8754
vn 0.1861 0.4461 -0.8754
vn 0.0332 0.9871 -0.1563
vn 0.1486 -0.6993 -0.6993
vn 0.2055 0.1531 -0.9666
vn 0.0961 0.8869 -0.4519
vn 0.0961 -0.8869 -0.4519
vn 0.2055 -0.1531 -0.9666
vn 0.0940 -0.9871 -0.1293
vn 0.5261 -0.4461 -0.7241
vn 0.5261 0.4461 -0.7241
vn 0.0940 0.9871 -0.1293
vn 0.4202 -0.6993 -0.5783
vn 0.5809 0.1531 -0.7995
vn 0.2715 0.8869 -0.3738
vn 0.2715 -0.8869 -0.3738
vn 0.5809 -0.1531 -0.7995
vn 0.4202 0.6993 -0.5783
vn 0.8558 -0.1531 -0.4941
vn 0.6191 0.6993 -0.3574
vn 0.1384 -0.9871 -0.0799
vn 0.7751 -0.4461 -0.4475
vn 0.7751 0.4461 -0.4475
vn 0.1384 0.9871 -0.0799
vn 0.6191 -0.6993 -0.3574
vn 0.8558 0.1531 -0.4941
vn 0.4001 0.8869 -0.2310
vn 0.4001 -0.8869 -0.2310
vn 0.4595 0.8869 -0.0483
vn 0.4595 -0.8869 -0.0483
vn 0.9828 -0.1531 -0.1033
vn 0.7110 0.6993 -0.0747
vn 0.1590 -0.9871 -0.0167
vn 0.8901 -0.4461 -0.0936
vn 0.8901 0.4461 -0.0936
vn 0.1590 0.9871 -0.0167
vn 0.7110 -0.6993 -0.0747
vn 0.9828 0.1531 -0.1033
vn 0.9398 0.1531 0.3054
vn 0.4394 0.8869 0.1428
vn 0.4394 -0.8869 0.1428
vn 0.9398 -0.1531 0.3054
vn 0.6799 0.6993 0.2209
vn 0.1520 -0.9871 0.0494
vn 0.8512 -0.4461 0.2766
vn 0.8512 0.4461 0.2766
vn 0.1520 0.9871 0.0494
vn 0.6799 -0.6993 0.2209
vn 0.1188 0.9871 0.1070
vn 0.5313 -0.6993 0.4783
vn 0.7344 0.1531 0.6612
vn 0.3433 0.8869 0.3091
vn 0.3433 -0.8869 0.3091
vn 0.7344 -0.1531 0.6612
vn 0.5313 0.6993 0.4783
vn 0.1188 -0.9871 0.1070
vn 0.6651 -0.4461 0.5989
vn 0.6651 0.4461 0.5989
vn 0.3640 -0.4461 0.8176
vn 0.3640 0.4461 0.8176
vn 0.0650 0.9871 0.1460
vn 0.2908 -0.6993 0.6531
vn 0.4019 0.1531 0.9028
vn 0.1879 0.8869 0.4220
vn 0.1879 -0.8869 0.4220
vn 0.4019 -0.1531 0.9028
vn 0.2908 0.6993 0.6531
vn 0.0650 -0.9871 0.1460
vn -0.0000 0.6993 0.7149
vn -0.0000 -0.9871 0.1598
vn -0.0000 -0.4461 0.8950
vn -0.0000 0.4461 0.8950
vn -0.0000 0.9871 0.1598
vn -0.0000 -0.6993 0.7149
vn -0.0000 0.1531 0.9882
vn -0.0000 0.8869 0.4620
vn -0.0000 -0.8869 0.4620
vn -0.0000 -0.1531 0.9882
vn -0.4019 -0.1531 0.9028
vn -0.2908 0.6993 0.6531
vn -0.0650 -0.9871 0.1460
vn -0.3640 -0.4461 0.8176
vn -0.3640 0.4461 0.8176
vn -0.0650 0.9871 0.1460
vn -0.2908 -0.6993 0.6531
vn -0.4019 0.1531 0.9028
vn -0.1879 0.8869 0.4220
vn -0.1879 -0.8869 0.4220
vn -0.3433 0.8869 0.3091
vn -0.3433 -0.8869 0.3091
vn -0.7344 -0.1531 0.6612
vn -0.5313 0.6993 0.4783
vn -0.1188 -0.9871 0.1070
vn -0.6651 -0.4461 0.5989
vn -0.6651 0.4461 0.5989
vn -0.1188 0.9871 0.1070
vn -0.5313 -0.6993 0.4783
vn -0.7344 0.1531 0.6612
vn -0.6799 -0.6993 0.2209
vn -0.9398 0.1531 0.3054
vn -0.4394 0.8869 0.1428
vn -0.4394 -0.8869 0.1428
vn -0.9398 -0.1531 0.3054
vn -0.6799 0.6993 0.2209
vn -0.1520 -0.9871 0.0494
vn -0.8512 -0.4461 0.2766
vn -0.8512 0.4461 0.2766
vn -0.1520 0.9871 0.0494
vn -0.8901 0.4461 -0.0936
vn -0.1590 0.9871 -0.0167
vn -0.7110 -0.6993 -0.0747
vn -0.9828 0.1531 -0.1033
vn -0.4595 0.8869 -0.0483
vn -0.4595 -0.8869 -0.0483
vn -0.9828 -0.1531 -0.1033
vn -0.7110 0.6993 -0.0747
vn -0.1590 -0.9871 -0.0167
vn -0.8901 -0.4461 -0.0936
vn -0.7751 -0.4461 -0.4475
vn -0.7751 0.4461 -0.4475
vn -0.1384 0.9871 -0.0799
vn -0.6191 -0.6993 -0.3574
vn -0.8558 0.1531 -0.4941
vn -0.4001 0.8869 -0.2310
vn -0.4001 -0.8869 -0.2310
vn -0.8558 -0.1531 -0.4941
vn -0.6191 0.6993 -0.3574
vn -0.1384 -0.9871 -0.0799
vn -0.4202 0.6993 -0.5783
vn -0.0940 -0.9871 -0.1293
vn -0.5261 -0.4461 -0.7241
vn -0.5261 0.4461 -0.7241
vn -0.0940 0.9871 -0.1293
vn -0.4202 -0.6993 -0.5783
vn -0.5809 0.1531 -0.7995
vn -0.2715 0.8869 -0.3738
vn -0.2715 -0.8869 -0.3738
vn -0.5809 -0.1531 -0.7995
vn -0.0961 -0.8869 -0.4519
vn -0.2055 -0.1531 -0.9666
vn -0.1486 0.6993 -0.6993
vn -0.0332 -0.9871 -0.1563
vn -0.1861 -0.4461 -0.8754
vn -0.1861 0.4461 -0.8754
vn -0.0332 0.9871 -0.1563
vn -0.1486 -0.6993 -0.6993
vn -0.2055 0.1531 -0.9666
vn -0.0961 0.8869 -0.4519
vt 0.733333 0.600000
vt 0.733333 0.500000
vt 0.733333 0.400000
vt 0.733333 0.300000
vt 0.733333 0.200000
vt 0.733333 0.100000
vt 0.666667 0.900000
vt 0.666667 0.800000
vt 0.666667 0.700000
vt 0.666667 0.600000
vt 0.666667 0.500000
vt 0.666667 0.400000
vt 0.666667 0.300000
vt 0.666667 0.200000
vt 0.666667 0.100000
vt 0.600000 0.900000
vt 0.600000 0.800000
vt 0.600000 0.700000
vt 0.600000 0.600000
vt 0.600000 0.500000
vt 0.600000 0.400000
vt 0.600000 0.300000
vt 0.600000 0.200000
vt 0.600000 0.100000
vt 0.533333 0.900000
vt 0.533333 0.800000
vt 0.533333 0.700000
vt 0.533333 0.600000
vt 0.533333 0.500000
vt 0.533333 0.400000
vt 0.533333 0.300000
vt 0.533333 0.200000
vt 0.533333 0.100000
vt 0.466667 0.900000
vt 0.466667 0.800000
vt 0.466667 0.700000
vt 0.466667 0.600000
vt 0.466667 0.500000
vt 0.466667 0.400000
vt 0.466667 0.300000
vt 0.466667 0.200000
vt 0.466667 0.100000
vt 0.400000 0.900000
vt 0.400000 0.800000
vt 0.400000 0.700000
vt 0.400000 0.600000
vt 0.400000 0.500000
vt 0.400000 0.400000
vt 0.400000 0.300000
vt 0.400000 0.200000
vt 0.400000 0.100000
vt 0.333333 0.900000
vt 0.333333 0.800000
vt 0.333333 0.700000
vt 0.333333 0.600000
vt 0.333333 0.500000
vt 0.333333 0.400000
vt 0.333333 0.300000
vt 0.333333 0.200000
vt 0.333333 0.100000
vt 0.266667 0.900000
vt 0.266667 0.800000
vt 0.266667 0.700000
vt 0.266667 0.600000
vt 0.266667 0.500000
vt 0.266667 0.400000
vt 0.266667 0.300000
vt 0.266667 0.200000
vt 0.266667 0.100000
vt 0.200000 0.900000
vt 0.200000 0.800000
vt 0.200000 0.700000
vt 0.200000 0.600000
vt 0.200000 0.500000
vt 0.200000 0.400000
vt 0.200000 0.300000
vt 0.200000 0.200000
vt 0.200000 0.100000
vt 0.700000 0.000000
vt 0.633333 0.000000
vt 0.566667 0.000000
vt 0.500000 0.000000
vt 0.433333 0.000000
vt 0.366667 0.000000
vt 0.300000 0.000000
vt 0.233333 0.000000
vt 0.166667 0.000000
vt 0.100000 0.000000
vt 0.033333 0.000000
vt 0.966667 0.000000
vt 0.900000 0.000000
vt 0.833333 0.000000
vt 0.766667 0.000000
vt 0.700000 1.000000
vt 0.633333 1.000000
vt 0.566667 1.000000
vt 0.500000 1.000000
vt 0.433333 1.000000
vt 0.366667 1.000000
vt 0.300000 1.000000
vt 0.233333 1.000000
vt 0.166667 1.000000
vt 0.100000 1.000000
vt 0.033333 1.000000
vt 0.966667 1.000000
vt 0.900000 1.000000
vt 0.833333 1.000000
vt 0.766667 1.000000
vt 0.133333 0.900000
vt 0.133333 0.800000
vt 0.133333 0.700000
vt 0.133333 0.600000
vt 0.133333 0.500000
vt 0.133333 0.400000
vt 0.133333 0.300000
vt 0.133333 0.200000
vt 0.133333 0.100000
vt 0.066667 0.900000
vt 0.066667 0.800000
vt 0.066667 0.700000
vt 0.066667 0.600000
vt 0.066667 0.500000
vt 0.066667 0.400000
vt 0.066667 0.300000
vt 0.066667 0.200000
vt 0.066667 0.100000
vt 0.000000 0.900000
vt 1.000000 0.900000
vt 0.000000 0.800000
vt 1.000000 0.800000
vt 0.000000 0.700000
vt 1.000000 0.700000
vt 0.000000 0.600000
vt 1.000000 0.600000
vt 0.000000 0.500000
vt 1.000000 0.500000
vt 0.000000 0.400000
vt 1.000000 0.400000
vt 0.000000 0.300000
vt 1.000000 0.300000
vt 0.000000 0.200000
vt 1.000000 0.200000
vt 0.000000 0.100000
vt 1.000000 0.100000
vt 0.933333 0.900000
vt 0.933333 0.800000
vt 0.933333 0.700000
vt 0.933333 0.600000
vt 0.933333 0.500000
vt 0.933333 0.400000
vt 0.933333 0.300000
vt 0.933333 0.200000
vt 0.933333 0.100000
vt 0.866667 0.900000
vt 0.866667 0.800000
vt 0.866667 0.700000
vt 0.866667 0.600000
vt 0.866667 0.500000
vt 0.866667 0.400000
vt 0.866667 0.300000
vt 0.866667 0.200000
vt 0.866667 0.100000
vt 0.800000 0.900000
vt 0.800000 0.800000
vt 0.800000 0.700000
vt 0.800000 0.600000
vt 0.800000 0.500000
vt 0.800000 0.400000
vt 0.800000 0.300000
vt 0.800000 0.200000
vt 0.800000 0.100000
vt 0.733333 0.900000
vt 0.733333 0.800000
vt 0.733333 0.700000
s 0
f 137/174/1 136/173/1 8/8/1 9/9/1
f 79/79/2 6/6/2 15/15/2
f 4/4/3 3/3/3 12/12/3 13/13/3
f 1/1/4 137/174/4 9/9/4 10/10/4
f 135/172/5 80/94/5 7/7/5
f 5/5/6 4/4/6 13/13/6 14/14/6
f 2/2/7 1/1/7 10/10/7 11/11/7
f 136/173/8 135/172/8 7/7/8 8/8/8
f 6/6/9 5/5/9 14/14/9 15/15/9
f 3/3/10 2/2/10 11/11/10 12/12/10
f 79/80/11 15/15/11 24/24/11
f 13/13/12 12/12/12 21/21/12 22/22/12
f 10/10/13 9/9/13 18/18/13 19/19/13
f 7/7/14 80/95/14 16/16/14
f 14/14/15 13/13/15 22/22/15 23/23/15
f 11/11/16 10/10/16 19/19/16 20/20/16
f 8/8/17 7/7/17 16/16/17 17/17/17
f 15/15/18 14/14/18 23/23/18 24/24/18
f 12/12/19 11/11/19 20/20/19 21/21/19
f 9/9/20 8/8/20 17/17/20 18/18/20
f 21/21/21 20/20/21 29/29/21 30/30/21
f 18/18/22 17/17/22 26/26/22 27/27/22
f 79/81/23 24/24/23 33/33/23
f 22/22/24 21/21/24 30/30/24 31/31/24
f 19/19/25 18/18/25 27/27/25 28/28/25
f 16/16/26 80/96/26 25/25/26
f 23/23/27 22/22/27 31/31/27 32/32/27
f 20/20/28 19/19/28 28/28/28 29/29/28
f 17/17/29 16/16/29 25/25/29 26/26/29
f 24/24/30 23/23/30 32/32/30 33/33/30
f 26/26/31 25/25/31 34/34/31 35/35/31
f 33/33/32 32/32/32 41/41/32 42/42/32
f 30/30/33 29/29/33 38/38/33 39/39/33
f 27/27/34 26/26/34 35/35/34 36/36/34
f 79/82/35 33/33/35 42/42/35
f 31/31/36 30/30/36 39/39/36 40/40/36
f 28/28/37 27/27/37 36/36/37 37/37/37
f 25/25/38 80/97/38 34/34/38
f 32/32/39 31/31/39 40/40/39 41/41/39
f 29/29/40 28/28/40 37/37/40 38/38/40
f 38/38/41 37/37/41 46/46/41 47/47/41
f 35/35/42 34/34/42 43/43/42 44/44/42
f 42/42/43 41/41/43 50/50/43 51/51/43
f 39/39/44 38/38/44 47/47/44 48/48/44
f 36/36/45 35/35/45 44/44/45 45/45/45
f 79/83/46 42/42/46 51/51/46
f 40/40/47 39/39/47 48/48/47 49/49/47
f 37/37/48 36/36/48 45/45/48 46/46/48
f 34/34/49 80/98/49 43/43/49
f 41/41/50 40/40/50 49/49/50 50/50/50
f 43/43/51 80/99/51 52/52/51
f 50/50/52 49/49/52 58/58/52 59/59/52
f 47/47/53 46/46/53 55/55/53 56/56/53
f 44/44/54 43/43/54 52/52/54 53/53/54
f 51/51/55 50/50/55 59/59/55 60/60/55
f 48/48/56 47/47/56 56/56/56 57/57/56
f 45/45/57 44/44/57 53/53/57 54/54/57
f 79/84/58 51/51/58 60/60/58
f 49/49/59 48/48/59 57/57/59 58/58/59
f 46/46/60 45/45/60 54/54/60 55/55/60
f 58/58/61 57/57/61 66/66/61 67/67/61
f 55/55/62 54/54/62 63/63/62 64/64/62
f 52/52/63 80/100/63 61/61/63
f 59/59/64 58/58/64 67/67/64 68/68/64
f 56/56/65 55/55/65 64/64/65 65/65/65
f 53/53/66 52/52/66 61/61/66 62/62/66
f 60/60/67 59/59/67 68/68/67 69/69/67
f 57/57/68 56/56/68 65/65/68 66/66/68
f 54/54/69 53/53/69 62/62/69 63/63/69
f 79/85/70 60/60/70 69/69/70
f 63/63/71 62/62/71 71/71/71 72/72/71
f 79/86/72 69/69/72 78/78/72
f 67/67/73 66/66/73 75/75/73 76/76/73
f 64/64/74 63/63/74 72/72/74 73/73/74
f 61/61/75 80/101/75 70/70/75
f 68/68/76 67/67/76 76/76/76 77/77/76
f 65/65/77 64/64/77 73/73/77 74/74/77
f 62/62/78 61/61/78 70/70/78 71/71/78
f 69/69/79 68/68/79 77/77/79 78/78/79
f 66/66/80 65/65/80 74/74/80 75/75/80
f 75/75/81 74/74/81 85/113/81 86/114/81
f 72/72/82 71/71/82 82/110/82 83/111/82
f 79/87/83 78/78/83 89/117/83
f 76/76/84 75/75/84 86/114/84 87/115/84
f 73/73/85 72/72/85 83/111/85 84/112/85
f 70/70/86 80/102/86 81/109/86
f 77/77/87 76/76/87 87/115/87 88/116/87
f 74/74/88 73/73/88 84/112/88 85/113/88
f 71/71/89 70/70/89 81/109/89 82/110/89
f 78/78/90 77/77/90 88/116/90 89/117/90
f 82/110/91 81/109/91 90/118/91 91/119/91
f 89/117/92 88/116/92 97/125/92 98/126/92
f 86/114/93 85/113/93 94/122/93 95/123/93
f 83/111/94 82/110/94 91/119/94 92/120/94
f 79/88/95 89/117/95 98/126/95
f 87/115/96 86/114/96 95/123/96 96/124/96
f 84/112/97 83/111/97 92/120/97 93/121/97
f 81/109/98 80/103/98 90/118/98
f 88/116/99 87/115/99 96/124/99 97/125/99
f 85/113/100 84/112/100 93/121/100 94/122/100
f 97/125/101 96/124/101 105/139/101 106/141/101
f 94/122/102 93/121/102 102/133/102 103/135/102
f 91/119/103 90/118/103 99/127/103 100/129/103
f 98/126/104 97/125/104 106/141/104 107/143/104
f 95/123/105 94/122/105 103/135/105 104/137/105
f 92/120/106 91/119/106 100/129/106 101/131/106
f 79/89/107 98/126/107 107/143/107
f 96/124/108 95/123/108 104/137/108 105/139/108
f 93/121/109 92/120/109 101/131/109 102/133/109
f 90/118/110 80/104/110 99/127/110
f 102/134/111 101/132/111 110/147/111 111/148/111
f 99/128/112 80/105/112 108/145/112
f 106/142/113 105/140/113 114/151/113 115/152/113
f 103/136/114 102/134/114 111/148/114 112/149/114
f 100/130/115 99/128/115 108/145/115 109/146/115
f 107/144/116 106/142/116 115/152/116 116/153/116
f 104/138/117 103/136/117 112/149/117 113/150/117
f 101/132/118 100/130/118 109/146/118 110/147/118
f 79/90/119 107/144/119 116/153/119
f 105/140/120 104/138/120 113/150/120 114/151/120
f 114/151/121 113/150/121 122/159/121 123/160/121
f 111/148/122 110/147/122 119/156/122 120/157/122
f 108/145/123 80/106/123 117/154/123
f 115/152/124 114/151/124 123/160/124 124/161/124
f 112/149/125 111/148/125 120/157/125 121/158/125
f 109/146/126 108/145/126 117/154/126 118/155/126
f 116/153/127 115/152/127 124/161/127 125/162/127
f 113/150/128 112/149/128 121/158/128 122/159/128
f 110/147/129 109/146/129 118/155/129 119/156/129
f 79/91/130 116/153/130 125/162/130
f 119/156/131 118/155/131 127/164/131 128/165/131
f 79/92/132 125/162/132 134/171/132
f 123/160/133 122/159/133 131/168/133 132/169/133
f 120/157/134 119/156/134 128/165/134 129/166/134
f 117/154/135 80/107/135 126/163/135
f 124/161/136 123/160/136 132/169/136 133/170/136
f 121/158/137 120/157/137 129/166/137 130/167/137
f 118/155/138 117/154/138 126/163/138 127/164/138
f 125/162/139 124/161/139 133/170/139 134/171/139
f 122/159/140 121/158/140 130/167/140 131/168/140
f 134/171/141 133/170/141 5/5/141 6/6/141
f 131/168/142 130/167/142 2/2/142 3/3/142
f 128/165/143 127/164/143 136/173/143 137/174/143
f 79/93/144 134/171/144 6/6/144
f 132/169/145 131/168/145 3/3/145 4/4/145
f 129/166/146 128/165/146 137/174/146 1/1/146
f 126/163/147 80/108/147 135/172/147
f 133/170/148 132/169/148 4/4/148 5/5/148
f 130/167/149 129/166/149 1/1/149 2/2/149
f 127/164/150 126/163/150 135/172/150 136/173/150
